<?xml version="1.0" encoding="UTF-8"?>
<svg xmlns="http://www.w3.org/2000/svg" width="211" height="50" viewBox="0 0 211 50" fill="none">
  <path fill-rule="evenodd" clip-rule="evenodd" d="M3.23242 25.7322L27.7324 1.23224L31.268 4.76777L6.76796 29.2678L3.23242 25.7322ZM6.73242 35.2322L31.2324 10.7322L34.768 14.2678L10.268 38.7678L6.73242 35.2322ZM34.7324 20.2322L10.2324 44.7322L13.768 48.2678L38.268 23.7678L34.7324 20.2322Z" fill="white"></path>
  <path d="M53.444 25.422L48.868 30.062V35.95H46.5V13.55H48.868V27.086L62.02 13.55H64.74L55.044 23.694L65.412 35.95H62.596L53.444 25.422Z" fill="white"></path>
  <path d="M78.2295 36.142C76.0108 36.142 73.9948 35.6513 72.1815 34.67C70.3895 33.6673 68.9815 32.302 67.9575 30.574C66.9548 28.846 66.4535 26.9046 66.4535 24.75C66.4535 22.5953 66.9548 20.654 67.9575 18.926C68.9815 17.198 70.3895 15.8433 72.1815 14.862C73.9948 13.8593 76.0108 13.358 78.2295 13.358C80.4482 13.358 82.4428 13.8486 84.2135 14.83C86.0055 15.8113 87.4135 17.1766 88.4375 18.926C89.4615 20.654 89.9735 22.5953 89.9735 24.75C89.9735 26.9046 89.4615 28.8566 88.4375 30.606C87.4135 32.334 86.0055 33.6886 84.2135 34.67C82.4428 35.6513 80.4482 36.142 78.2295 36.142ZM78.2295 34.03C80.0002 34.03 81.6002 33.6353 83.0295 32.846C84.4588 32.0353 85.5788 30.926 86.3895 29.518C87.2002 28.0886 87.6055 26.4993 87.6055 24.75C87.6055 23.0006 87.2002 21.422 86.3895 20.014C85.5788 18.5846 84.4588 17.4753 83.0295 16.686C81.6002 15.8753 80.0002 15.47 78.2295 15.47C76.4588 15.47 74.8482 15.8753 73.3975 16.686C71.9682 17.4753 70.8375 18.5846 70.0055 20.014C69.1948 21.422 68.7895 23.0006 68.7895 24.75C68.7895 26.4993 69.1948 28.0886 70.0055 29.518C70.8375 30.926 71.9682 32.0353 73.3975 32.846C74.8482 33.6353 76.4588 34.03 78.2295 34.03Z" fill="white"></path>
  <path d="M118.545 13.55V35.95H116.273V18.03L107.473 33.102H106.353L97.5532 18.126V35.95H95.2812V13.55H97.2332L106.961 30.158L116.593 13.55H118.545Z" fill="white"></path>
  <path d="M134.228 13.55C137.086 13.55 139.326 14.2326 140.948 15.598C142.569 16.9633 143.38 18.8406 143.38 21.23C143.38 23.6193 142.569 25.4966 140.948 26.862C139.326 28.206 137.086 28.878 134.228 28.878H128.212V35.95H125.844V13.55H134.228ZM134.164 26.798C136.382 26.798 138.078 26.318 139.252 25.358C140.425 24.3766 141.012 23.0006 141.012 21.23C141.012 19.4166 140.425 18.03 139.252 17.07C138.078 16.0886 136.382 15.598 134.164 15.598H128.212V26.798H134.164Z" fill="white"></path>
  <path d="M148.5 13.55H150.868V33.902H163.412V35.95H148.5V13.55Z" fill="white"></path>
  <path d="M183.184 33.902V35.95H167.344V13.55H182.704V15.598H169.712V23.566H181.296V25.582H169.712V33.902H183.184Z" fill="white"></path>
  <path d="M202.517 35.95L195.285 26.094L188.085 35.95H185.365L193.877 24.43L185.909 13.55H188.629L195.381 22.702L202.101 13.55H204.661L196.725 24.366L205.269 35.95H202.517Z" fill="white"></path>
</svg>
